<?xml version="1.0" encoding="utf-8"?>
<!--
   Licensed to the Apache Software Foundation (ASF) under one or more
   contributor license agreements.  See the NOTICE file distributed with
   this work for additional information regarding copyright ownership.
   The ASF licenses this file to You under the Apache License, Version 2.0
   (the "License"); you may not use this file except in compliance with
   the License.  You may obtain a copy of the License at

       http://www.apache.org/licenses/LICENSE-2.0

   Unless required by applicable law or agreed to in writing, software
   distributed under the License is distributed on an "AS IS" BASIS,
   WITHOUT WARRANTIES OR CONDITIONS OF ANY KIND, either express or implied.
   See the License for the specific language governing permissions and
   limitations under the License.
  -->
<!-- Generator: Adobe Illustrator 16.0.3, SVG Export Plug-In . SVG Version: 6.00 Build 0)  -->
<!DOCTYPE svg PUBLIC "-//W3C//DTD SVG 1.1//EN" "http://www.w3.org/Graphics/SVG/1.1/DTD/svg11.dtd">
<svg version="1.1" id="User" xmlns="http://www.w3.org/2000/svg" xmlns:xlink="http://www.w3.org/1999/xlink" x="0px" y="0px"
	 width="705.691px" height="705.691px" viewBox="-55.206 68.1 705.691 705.691"
	 enable-background="new -55.206 68.1 705.691 705.691" xml:space="preserve">
<path fill="#FFFFFF" d="M297.64,68.1c-194.871,0-352.846,157.975-352.846,352.846c0,194.872,157.975,352.846,352.846,352.846
	c194.872,0,352.846-157.974,352.846-352.846C650.486,226.074,492.512,68.1,297.64,68.1z M513.516,618.415H81.764v-23.986
	c0-47.973,52.674-75.676,103.764-97.695c50.923-21.924,67.233-40.417,67.233-79.971c0-23.746-15.566-15.998-22.379-59.51
	c-2.83-18.062-16.598-0.288-19.213-41.472c0-16.407,7.508-20.484,7.508-20.484s-3.791-24.322-5.326-43.008
	c-1.2-15.279,5.349-43.99,29.719-62.124c28.616-20.676,41.112-48.788,94.841-46.27c-24.562,13.025-19.164,26.001-11.178,34.156
	c45.622,12.833,56.729,54.665,55.169,74.261c-1.512,18.686-5.301,43.008-5.301,43.008s7.531,4.077,7.531,20.484
	c-2.662,41.184-16.406,23.41-19.261,41.472c-6.836,43.511-22.355,35.764-22.355,59.51c0,39.577,16.263,58.047,67.186,79.97
	c51.114,21.996,103.813,49.699,103.813,97.672V618.415z"/>
</svg>
